<?xml version="1.0" encoding="utf-8"?>
<!-- Generator: Adobe Illustrator 17.0.0, SVG Export Plug-In . SVG Version: 6.00 Build 0)  -->
<!DOCTYPE svg PUBLIC "-//W3C//DTD SVG 1.1//EN" "http://www.w3.org/Graphics/SVG/1.1/DTD/svg11.dtd">
<svg version="1.1" id="图层_1" xmlns="http://www.w3.org/2000/svg" xmlns:xlink="http://www.w3.org/1999/xlink" x="0px" y="0px"
	 width="3061.42px" height="2723.684px" viewBox="0 1249.917 3061.42 2723.684"
	 enable-background="new 0 1249.917 3061.42 2723.684" xml:space="preserve">
<g>
	<g>
		<path fill="#F7323F" stroke="#F7323F" stroke-width="135.9055" d="M2003.454,2069.198H339.97v-684.964h1663.484V2069.198z
			 M437.822,1971.346h1467.78v-489.26H437.822V1971.346z"/>
	</g>
	<g>
		<path fill="#F7323F" stroke="#F7323F" stroke-width="135.9055" d="M2786.27,3830.534H1122.786V3145.57H2786.27V3830.534z
			 M1220.638,3732.682h1467.78v-489.26h-1467.78V3732.682z"/>
	</g>
	<g>
		<path fill="#F7323F" stroke="#F7323F" stroke-width="135.9055" d="M2003.454,3194.496h-97.852v-195.704
			c0-116.829-32.646-195.729-102.745-248.299c-65.487-49.116-155.89-71.713-251.608-95.644
			c-100.922-25.234-205.287-51.323-286.578-112.291c-95.473-71.609-141.885-178.433-141.885-326.581v-195.704h97.852v195.704
			c0,116.829,32.646,195.728,102.745,248.299c65.487,49.116,155.89,71.713,251.608,95.644
			c100.922,25.234,205.287,51.323,286.578,112.291c95.473,71.603,141.885,178.433,141.885,326.581L2003.454,3194.496
			L2003.454,3194.496z"/>
	</g>
</g>
</svg>
