<?xml version="1.0" encoding="utf-8"?>
<!-- Generator: Adobe Illustrator 17.0.0, SVG Export Plug-In . SVG Version: 6.00 Build 0)  -->
<!DOCTYPE svg PUBLIC "-//W3C//DTD SVG 1.1//EN" "http://www.w3.org/Graphics/SVG/1.1/DTD/svg11.dtd">
<svg version="1.1" id="图层_1" xmlns="http://www.w3.org/2000/svg" xmlns:xlink="http://www.w3.org/1999/xlink" x="0px" y="0px"
	 width="20px" height="20px" viewBox="0 0 20 20" enable-background="new 0 0 20 20" xml:space="preserve">
<g>
	<g>
		<path fill="#FFFFFF" d="M9.588,9.102h0.424C10.006,9.225,10,9.343,9.993,9.459c0.019,0.745,0.353,1.253,1.003,1.523
			c-0.032,0.039-0.081,0.093-0.145,0.164c-0.071,0.096-0.125,0.167-0.164,0.212c-0.45-0.244-0.739-0.582-0.868-1.012
			c-0.103,0.398-0.408,0.745-0.916,1.041c-0.103-0.161-0.19-0.28-0.26-0.357c0.617-0.308,0.925-0.768,0.925-1.379
			C9.582,9.498,9.588,9.315,9.588,9.102z"/>
		<path fill="#FFFFFF" d="M11.141,9.305l0.222-0.164c0.09,0.084,0.177,0.17,0.26,0.26L11.41,9.556h0.222V9.093h0.318v0.463h0.183
			L11.96,9.401c0.058-0.045,0.145-0.135,0.26-0.27l0.222,0.174c-0.077,0.09-0.154,0.174-0.231,0.251h0.164v0.251
			c0.103-0.193,0.183-0.431,0.241-0.713l0.347,0.048c-0.007,0.013-0.013,0.032-0.019,0.058c-0.013,0.058-0.039,0.138-0.077,0.241
			h0.588v0.366h-0.125c-0.039,0.405-0.119,0.72-0.241,0.945c0.096,0.103,0.225,0.199,0.386,0.289
			c-0.071,0.103-0.142,0.219-0.212,0.347c-0.161-0.116-0.293-0.225-0.395-0.328c-0.103,0.103-0.235,0.219-0.395,0.347
			c-0.019-0.026-0.048-0.067-0.087-0.125c-0.032-0.045-0.058-0.08-0.077-0.106l-0.096,0.164c-0.039-0.019-0.096-0.048-0.174-0.087
			c-0.071-0.039-0.125-0.067-0.164-0.087c-0.148,0.096-0.36,0.177-0.636,0.241c-0.007-0.013-0.016-0.032-0.029-0.058
			c-0.045-0.116-0.081-0.196-0.106-0.241c0.096-0.019,0.215-0.048,0.357-0.087c0.019-0.006,0.035-0.01,0.048-0.01
			c-0.09-0.051-0.193-0.1-0.308-0.145c0.019-0.032,0.048-0.077,0.087-0.135c0.019-0.032,0.032-0.055,0.039-0.067h-0.193v-0.289
			h0.357c0.026-0.045,0.048-0.087,0.067-0.125h0.357c-0.007,0.013-0.019,0.032-0.039,0.058c-0.013,0.032-0.026,0.055-0.039,0.067
			h0.492v0.308c-0.058,0.103-0.119,0.196-0.183,0.28c0.019,0.006,0.045,0.016,0.077,0.029c0.051,0.026,0.09,0.042,0.116,0.048
			c0.135-0.096,0.244-0.193,0.328-0.289c-0.071-0.135-0.125-0.296-0.164-0.482c-0.007,0.013-0.019,0.035-0.039,0.067
			c-0.013,0.026-0.026,0.048-0.039,0.067c-0.039-0.077-0.071-0.138-0.096-0.183l-0.077,0.106c-0.071-0.051-0.171-0.119-0.299-0.202
			v0.087h-0.318v-0.116c-0.116,0.096-0.238,0.177-0.366,0.241c-0.045-0.096-0.096-0.19-0.154-0.28
			c0.174-0.064,0.302-0.132,0.386-0.202H11.15V9.556h0.202c-0.013-0.013-0.029-0.032-0.048-0.058
			C11.221,9.408,11.166,9.343,11.141,9.305z M11.613,10.741c0.077,0.026,0.154,0.058,0.231,0.096
			c0.058-0.051,0.103-0.109,0.135-0.174h-0.318C11.642,10.696,11.626,10.722,11.613,10.741z M12.085,9.893
			c0.058,0.032,0.122,0.067,0.193,0.106c0.032-0.051,0.058-0.1,0.077-0.145H11.95v0.193L12.085,9.893z M12.731,9.806
			c0.026,0.231,0.074,0.437,0.145,0.617c0.058-0.141,0.096-0.347,0.116-0.617H12.731z"/>
		<path fill="#FFFFFF" d="M14.187,9.787V9.98h1.08V9.556h-1.552V9.189h1.967v1.157h-1.494v0.443c0,0.116,0.058,0.174,0.174,0.174
			h0.877c0.148,0.006,0.228-0.048,0.241-0.164c0-0.032,0.006-0.08,0.019-0.145c0.006-0.077,0.013-0.135,0.019-0.174
			c0.032,0.006,0.074,0.019,0.125,0.039c0.122,0.032,0.215,0.055,0.28,0.067c-0.019,0.161-0.045,0.308-0.077,0.443
			c-0.039,0.193-0.193,0.286-0.463,0.28h-1.186c-0.283,0-0.424-0.138-0.424-0.415V9.787H14.187z"/>
		<path fill="#FFFFFF" d="M16.356,9.739c0.039,0.058,0.093,0.138,0.164,0.241c0.058,0.084,0.096,0.141,0.116,0.174l-0.328,0.202
			c-0.013-0.026-0.036-0.064-0.067-0.116c-0.09-0.148-0.158-0.254-0.202-0.318L16.356,9.739z M16.394,9.102
			c0.077,0.103,0.145,0.206,0.202,0.308V9.257h0.376V9.083h0.357v0.174h0.318V9.083h0.357v0.174h0.376v0.299h-0.376v0.116h-0.357
			V9.556h-0.318v0.116h-0.357V9.556h-0.376L16.337,9.7c-0.084-0.135-0.171-0.283-0.26-0.443L16.394,9.102z M16.25,10.423
			l0.357,0.096c-0.071,0.347-0.125,0.63-0.164,0.848l-0.366-0.087c0.026-0.109,0.061-0.283,0.106-0.521
			C16.214,10.613,16.237,10.5,16.25,10.423z M16.606,9.7h1.764v0.299h-0.453v0.135h0.386v0.945c0.013,0.193-0.087,0.289-0.299,0.289
			c-0.09,0-0.183,0-0.28,0c0-0.006-0.003-0.019-0.01-0.039c-0.019-0.116-0.039-0.196-0.058-0.241c0.09,0.006,0.157,0.01,0.202,0.01
			c0.077-0.006,0.116-0.039,0.116-0.096v-0.067l-0.067,0.067c-0.045-0.051-0.093-0.106-0.145-0.164
			c-0.045,0.122-0.113,0.241-0.202,0.357c-0.032-0.026-0.081-0.055-0.145-0.087c-0.039-0.026-0.067-0.045-0.087-0.058
			c0.019-0.032,0.045-0.077,0.077-0.135c0.019-0.032,0.032-0.055,0.039-0.067c-0.039-0.032-0.077-0.061-0.116-0.087
			c-0.039,0.122-0.106,0.244-0.202,0.366c-0.039-0.026-0.084-0.064-0.135-0.116v0.366h-0.337v-1.244h0.405V9.999h-0.453V9.7z
			 M16.992,10.423v0.405c0.077-0.129,0.119-0.263,0.125-0.405H16.992z M17.387,10.481c0.019,0.013,0.042,0.029,0.067,0.048
			c0.039,0.026,0.067,0.045,0.087,0.058c0.013-0.051,0.022-0.106,0.029-0.164h-0.183C17.387,10.442,17.387,10.462,17.387,10.481z
			 M17.397,9.999v0.135h0.183V9.999H17.397z M17.831,10.539c0.019,0.013,0.045,0.032,0.077,0.058
			c0.026,0.026,0.048,0.045,0.067,0.058v-0.231H17.85c0,0.013-0.003,0.032-0.01,0.058C17.84,10.507,17.837,10.526,17.831,10.539z"/>
	</g>
	<g>
		<path fill="none" stroke="#FFFFFF" stroke-width="0.2057" stroke-miterlimit="10" d="M6.73,8.409h11.517
			c0.679,0,1.234,0.555,1.234,1.234v1.539c0,0.679-0.555,1.234-1.234,1.234H6.73"/>
	</g>
	<path fill="#FFFFFF" d="M8.555,12.115c-0.054-0.017-0.639-0.296-1.405-0.56c0.633-0.423,1.052-1.145,1.052-1.962
		c0-1.301-1.058-2.359-2.359-2.359c-1.301,0-2.359,1.058-2.359,2.359c0,0.375,0.089,0.73,0.245,1.046
		c0.147,0.029,0.529,0.102,1.132,0.204c0.672,0.114,1.117,0.022,1.487-0.307c0.231-0.206,0.368-0.489,0.386-0.798
		c0.018-0.309-0.085-0.606-0.291-0.837C6.112,8.53,5.541,8.497,5.17,8.827c-0.297,0.264-0.335,0.726-0.083,1.01
		c0.198,0.222,0.561,0.247,0.778,0.054c0.08-0.072,0.128-0.167,0.133-0.268c0.005-0.083-0.02-0.161-0.068-0.213
		C5.888,9.362,5.82,9.336,5.749,9.337C5.69,9.338,5.612,9.362,5.562,9.412C5.55,9.423,5.535,9.431,5.518,9.431
		c-0.037,0-0.067-0.033-0.067-0.074c0-0.025,0.01-0.043,0.023-0.06C5.55,9.193,5.656,9.133,5.761,9.124
		c0.143-0.012,0.259,0.029,0.351,0.13c0.091,0.101,0.139,0.234,0.131,0.381c-0.009,0.167-0.085,0.322-0.215,0.437
		c-0.32,0.285-0.834,0.251-1.123-0.074c-0.34-0.382-0.293-1.002,0.103-1.355c0.472-0.42,1.198-0.378,1.618,0.094
		C6.875,9.018,7,9.378,6.978,9.752c-0.022,0.374-0.188,0.717-0.467,0.966c-0.315,0.28-0.682,0.415-1.153,0.415
		c-0.166,0-0.344-0.017-0.538-0.05c-0.666-0.113-1.377-0.24-1.473-0.253c-0.48-0.064-0.878-0.39-0.89-0.868l0.122-2.093
		c0-0.135-0.109-0.244-0.244-0.244S2.09,7.734,2.09,7.869c0,0,0.071,1.272,0.08,1.432c0.016,0.305-0.265,0.549-0.574,0.549
		c-0.317,0-0.599-0.258-0.574-0.574C1.035,9.102,1.05,8.92,1.064,8.75l0.05-0.866c0-0.135-0.109-0.244-0.244-0.244
		c-0.135,0-0.244,0.11-0.244,0.244l0.119,2.051c0,0.001,0,0.002,0,0.004c0,1.435,0.821,2.605,2.257,2.603
		c1.448-0.002,5.554,0,5.554,0c0.118,0,0.214-0.096,0.214-0.214S8.668,12.15,8.555,12.115z"/>
</g>
</svg>
