<?xml version="1.0" encoding="utf-8"?>
<!-- Generator: Adobe Illustrator 17.0.0, SVG Export Plug-In . SVG Version: 6.00 Build 0)  -->
<!DOCTYPE svg PUBLIC "-//W3C//DTD SVG 1.1//EN" "http://www.w3.org/Graphics/SVG/1.1/DTD/svg11.dtd">
<svg version="1.1" id="图层_1" xmlns="http://www.w3.org/2000/svg" xmlns:xlink="http://www.w3.org/1999/xlink" x="0px" y="0px"
	 width="3061.42px" height="2723.684px" viewBox="0 1249.917 3061.42 2723.684"
	 enable-background="new 0 1249.917 3061.42 2723.684" xml:space="preserve">
<g>
	<ellipse fill="#F7323F" cx="923.563" cy="1927.556" rx="786.31" ry="349.471"/>
	<path fill="#F7323F" d="M923.563,2626.498c-365.984,0-670.81-111.569-758.527-262.104c-16.425,28.307-27.783,56.964-27.783,87.368
		c0,193.17,352.005,349.471,786.31,349.471s786.31-156.301,786.31-349.471c0-30.404-11.445-59.061-27.783-87.368
		C1594.286,2514.93,1289.547,2626.498,923.563,2626.498z"/>
	<path fill="#F7323F" d="M923.563,3150.705c-365.984,0-670.81-111.569-758.527-262.104c-16.425,28.307-27.783,56.964-27.783,87.368
		c0,193.17,352.005,349.471,786.31,349.471s786.31-156.301,786.31-349.471c0-30.404-11.445-59.061-27.783-87.368
		C1594.286,3039.136,1289.547,3150.705,923.563,3150.705z"/>
	<path fill="#F7323F" d="M2146.712,2975.97c-92.173,0-262.103-7.164-262.103-20.095v173.688c0,12.93,169.581,21.143,262.103,21.143
		c434.306,0,786.311-156.301,786.311-349.471c0-30.404-11.445-59.061-27.783-87.368
		C2817.523,2864.401,2512.696,2975.97,2146.712,2975.97z"/>
	<path fill="#F7323F" d="M923.563,3674.912c-365.984,0-670.81-111.569-758.527-262.104c-16.425,28.307-27.783,56.964-27.783,87.368
		c0,193.17,352.005,349.471,786.31,349.471s786.31-156.301,786.31-349.471c0-30.404-11.445-59.061-27.783-87.368
		C1594.286,3563.344,1289.547,3674.912,923.563,3674.912z"/>
	<path fill="#F7323F" d="M2146.712,3500.177c-92.173,0-262.103-7.164-262.103-20.095v173.688c0,12.93,169.581,21.143,262.103,21.143
		c434.306,0,786.311-156.301,786.311-349.471c0-30.404-11.445-59.061-27.783-87.368
		C2817.523,3388.608,2512.696,3500.177,2146.712,3500.177z"/>
	<path fill="#F7323F" d="M2146.712,2451.763c-92.173,0-262.103-7.164-262.103-20.094v173.687c0,12.93,169.581,21.143,262.103,21.143
		c434.306,0,786.311-156.301,786.311-349.471c0-30.404-11.445-59.061-27.783-87.368
		C2817.523,2340.194,2512.696,2451.763,2146.712,2451.763z"/>
	<path fill="#F7323F" d="M2146.712,2102.292c434.306,0,786.311-156.301,786.311-349.471c0-192.821-352.005-349.471-786.311-349.471
		c-241.834,0-455.274,49.45-599.518,125.897c206.188,96.279,337.415,238.951,337.415,398.31c0,51.547-14.154,100.997-39.403,148.089
		C1937.991,2092.768,2039.862,2102.292,2146.712,2102.292z"/>
</g>
</svg>
