<?xml version="1.0" encoding="utf-8"?>
<!-- Generator: Adobe Illustrator 17.0.0, SVG Export Plug-In . SVG Version: 6.00 Build 0)  -->
<!DOCTYPE svg PUBLIC "-//W3C//DTD SVG 1.1//EN" "http://www.w3.org/Graphics/SVG/1.1/DTD/svg11.dtd">
<svg version="1.1" id="图层_1" xmlns="http://www.w3.org/2000/svg" xmlns:xlink="http://www.w3.org/1999/xlink" x="0px" y="0px"
	 width="3061.42px" height="2723.684px" viewBox="0 1249.917 3061.42 2723.684"
	 enable-background="new 0 1249.917 3061.42 2723.684" xml:space="preserve">
<g>
	<path fill="#F7323F" d="M1525.687,1398.335c677.336,0,1223.15,545.814,1223.15,1223.15s-545.814,1223.15-1223.15,1223.15
		s-1223.15-545.814-1223.15-1223.15S854.928,1398.335,1525.687,1398.335z"/>
	<path fill="#FFFFFF" d="M1696.665,3213.331c0-92.065-78.913-170.978-170.978-170.978s-170.978,78.913-164.402,170.978
		c0,92.065,78.913,164.402,170.978,164.402C1624.328,3384.309,1696.665,3305.396,1696.665,3213.331z"/>
	<path fill="#FFFFFF" d="M1374.437,1950.725c-13.152,26.304-13.152,59.184-13.152,85.489
		c6.576,85.489,13.152,170.978,13.152,249.891c6.576,131.521,13.152,263.043,19.728,394.564c0,39.456,6.576,78.913,6.576,124.946
		c0,72.337,59.185,124.945,124.946,124.945s124.946-52.609,124.946-118.369c13.152-203.858,19.728-407.717,32.88-611.575
		c0-52.609,6.576-111.793,13.152-164.402c6.576-85.489-46.032-157.826-124.945-177.554
		C1492.807,1838.932,1407.318,1878.388,1374.437,1950.725z"/>
</g>
</svg>
