<?xml version="1.0" encoding="utf-8"?>
<!-- Generator: Adobe Illustrator 17.0.0, SVG Export Plug-In . SVG Version: 6.00 Build 0)  -->
<!DOCTYPE svg PUBLIC "-//W3C//DTD SVG 1.1//EN" "http://www.w3.org/Graphics/SVG/1.1/DTD/svg11.dtd">
<svg version="1.1" id="图层_1" xmlns="http://www.w3.org/2000/svg" xmlns:xlink="http://www.w3.org/1999/xlink" x="0px" y="0px"
	 width="3061.42px" height="2723.684px" viewBox="0 1249.917 3061.42 2723.684"
	 enable-background="new 0 1249.917 3061.42 2723.684" xml:space="preserve">
<g>
	<path fill="#F7323F" d="M1555.395,1369.948c-524.278,0-950.779,426.54-950.779,950.817
		c0,496.229,790.031,1328.999,880.108,1422.297l70.671,73.185l70.671-73.185c90.077-93.298,880.147-926.068,880.147-1422.297
		C2506.213,1796.527,2079.711,1369.948,1555.395,1369.948z M1555.355,3531.403c-261.785-285.512-754.322-888.945-754.322-1210.599
		c0-415.973,338.388-754.4,754.361-754.4s754.401,338.427,754.401,754.4C2309.795,2642.143,1817.219,3245.812,1555.355,3531.403z"/>
	<path fill="#F7323F" d="M1555.395,1959.279c-199.325,0-361.487,162.162-361.487,361.487c0,199.324,162.162,361.486,361.487,361.486
		c199.364,0,361.566-162.162,361.566-361.486C1916.96,2121.441,1754.758,1959.279,1555.395,1959.279z M1555.395,2485.874
		c-91.02,0-165.069-74.049-165.069-165.069c0-91.02,74.049-165.069,165.069-165.069c91.02,0,165.148,74.049,165.148,165.069
		C1720.542,2411.824,1646.414,2485.874,1555.395,2485.874z"/>
</g>
</svg>
