<?xml version="1.0" encoding="utf-8"?>
<!-- Generator: Adobe Illustrator 17.0.0, SVG Export Plug-In . SVG Version: 6.00 Build 0)  -->
<!DOCTYPE svg PUBLIC "-//W3C//DTD SVG 1.1//EN" "http://www.w3.org/Graphics/SVG/1.1/DTD/svg11.dtd">
<svg version="1.1" id="图层_1" xmlns="http://www.w3.org/2000/svg" xmlns:xlink="http://www.w3.org/1999/xlink" x="0px" y="0px"
	 width="3061.42px" height="2723.684px" viewBox="0 1249.917 3061.42 2723.684"
	 enable-background="new 0 1249.917 3061.42 2723.684" xml:space="preserve">
<g>
	<path fill="none" stroke="#F7323F" stroke-width="203.8583" d="M2290.031,2542.581c0,0,564.196,245.83,632.755,922.902
		l-514.522,1.377"/>
	<path fill="none" stroke="#F7323F" stroke-width="203.8583" d="M1453.469,1785.473c20.139-226.211,210.173-403.574,441.649-403.574
		l0,0c244.789,0,443.302,198.482,443.302,443.301v507.789c0,224.344-166.651,409.788-382.885,439.231"/>
	<path fill="none" stroke="#F7323F" stroke-width="203.8583" d="M802.902,2840.839
		c-693.202,314.326-640.804,987.359-640.804,987.359l2148.072-8.05c0,0-108.836-757.658-632.755-1003.488"/>
	<path fill="none" stroke="#F7323F" stroke-width="203.8583" d="M1673.406,2683.645c0,244.85-198.482,443.332-443.302,443.332l0,0
		c-244.85,0-443.332-198.482-443.332-443.332v-507.819c0-244.82,198.512-443.302,443.332-443.302l0,0
		c244.82,0,443.302,198.482,443.302,443.302V2683.645z"/>
</g>
</svg>
