<?xml version="1.0" encoding="utf-8"?>
<!-- Generator: Adobe Illustrator 17.0.0, SVG Export Plug-In . SVG Version: 6.00 Build 0)  -->
<!DOCTYPE svg PUBLIC "-//W3C//DTD SVG 1.1//EN" "http://www.w3.org/Graphics/SVG/1.1/DTD/svg11.dtd">
<svg version="1.1" id="图层_1" xmlns:sketch="http://www.bohemiancoding.com/sketch/ns"
	 xmlns="http://www.w3.org/2000/svg" xmlns:xlink="http://www.w3.org/1999/xlink" x="0px" y="0px" width="20px" height="20px"
	 viewBox="0 0 20 20" enable-background="new 0 0 20 20" xml:space="preserve">
<title>schedule</title>
<desc>Created with Sketch.</desc>
<g>
	<path fill="#F7323F" d="M17.113,9.942V8.168c0-0.952-0.775-1.727-1.728-1.727c-0.368,0-0.709,0.116-0.99,0.312v-4.23
		c0-0.953-0.775-1.728-1.728-1.728c-0.953,0-1.728,0.775-1.728,1.728v3.493c-0.281-0.197-0.622-0.314-0.99-0.314
		c-0.583,0-1.099,0.291-1.412,0.735C8.221,6.071,7.754,5.838,7.233,5.838c-0.54,0-1.022,0.249-1.339,0.638
		c-0.316-0.418-0.815-0.69-1.378-0.69c-0.953,0-1.728,0.775-1.728,1.728v0.701l0,0l0,0.737l0.001,3.277
		c0,3.949,3.213,7.162,7.162,7.162c1.814,0,3.544-0.679,4.872-1.913c1.31-1.217,2.113-2.863,2.263-4.639
		c0.018-0.1,0.027-0.203,0.027-0.306v-0.214l0-0.002l0-0.088v-1.549L17.113,9.942L17.113,9.942L17.113,9.942z M8.959,7.43
		c0-0.547,0.444-0.99,0.991-0.99s0.99,0.443,0.99,0.99v4.429c0,0.547-0.443,0.99-0.99,0.99s-0.991-0.443-0.991-0.99v-0.353
		c0-0.008,0.001-0.015,0.001-0.022V7.566c0-0.008-0.001-0.015-0.001-0.022V7.43z M6.242,7.566c0-0.547,0.443-0.99,0.991-0.99
		c0.547,0,0.99,0.443,0.99,0.99v3.917c0,0.547-0.443,0.99-0.99,0.99c-0.547,0-0.991-0.443-0.991-0.99V7.566z M3.525,7.514
		c0-0.547,0.443-0.991,0.991-0.991c0.547,0,0.99,0.444,0.99,0.991v0.035c0,0.006-0.001,0.012-0.001,0.018v2.797
		C5.5,10.906,5.06,11.345,4.516,11.345c-0.547,0-0.991-0.444-0.991-0.991L3.525,7.514L3.525,7.514z M16.376,12.228
		c0,0.002-0.001,0.004-0.001,0.006v0.299c0,0.071-0.007,0.14-0.021,0.206c-0.261,3.31-3.027,5.914-6.404,5.914
		c-3.548,0-6.425-2.877-6.425-6.425v-0.461c0.281,0.197,0.622,0.314,0.991,0.314c0.378,0,0.728-0.124,1.013-0.331
		c0.129,0.826,0.844,1.46,1.705,1.46c0.473,0,0.903-0.192,1.215-0.501c0.297,0.523,0.859,0.877,1.502,0.877
		c0.953,0,1.728-0.775,1.728-1.728V7.43c0-0.005-0.001-0.009-0.001-0.013V2.522c0-0.547,0.444-0.991,0.99-0.991
		c0.547,0,0.99,0.443,0.99,0.991v8.848h0.737V8.168c0-0.547,0.444-0.99,0.99-0.99c0.547,0,0.99,0.443,0.99,0.99v2.512h0.001
		L16.376,12.228L16.376,12.228z"/>
	<path fill="#F7323F" d="M9.951,19.701c-4.12,0-7.473-3.352-7.473-7.472l0-3.276l0-1.438c0-1.124,0.914-2.038,2.038-2.038
		c0.523,0,1.012,0.197,1.387,0.548c0.716-0.621,1.872-0.64,2.613-0.038c0.543-0.539,1.397-0.734,2.114-0.476V2.522
		c0-1.124,0.914-2.038,2.038-2.038c1.123,0,2.037,0.914,2.037,2.038v3.724c0.217-0.077,0.446-0.117,0.68-0.117
		c1.124,0,2.038,0.914,2.038,2.038v4.365c0,0.122-0.01,0.243-0.032,0.362c-0.153,1.822-0.991,3.541-2.357,4.81
		C13.648,18.992,11.842,19.701,9.951,19.701z M4.516,6.096c-0.782,0-1.418,0.636-1.418,1.418v4.715c0,3.778,3.074,6.853,6.852,6.853
		c1.735,0,3.39-0.65,4.661-1.831c1.252-1.163,2.021-2.74,2.165-4.438c0.018-0.112,0.026-0.195,0.026-0.281V8.168
		c0-0.782-0.637-1.417-1.418-1.417c-0.291,0-0.573,0.089-0.812,0.256l-0.488,0.342V2.522c0-0.782-0.636-1.418-1.417-1.418
		s-1.418,0.636-1.418,1.418v4.09L10.762,6.27c-0.618-0.435-1.534-0.272-1.97,0.346L8.563,6.939L8.304,6.64
		c-0.553-0.64-1.639-0.62-2.17,0.032l-0.25,0.307L5.646,6.663C5.374,6.302,4.963,6.096,4.516,6.096z M9.951,18.963
		c-3.714,0-6.735-3.021-6.735-6.735v-1.06l0.489,0.345c0.484,0.341,1.157,0.339,1.642-0.014l0.41-0.298l0.078,0.5
		c0.107,0.683,0.709,1.199,1.399,1.199c0.375,0,0.729-0.146,0.997-0.411l0.288-0.285l0.2,0.351c0.253,0.445,0.725,0.721,1.233,0.721
		c0.782,0,1.418-0.637,1.418-1.418l-0.001-9.336c0-0.717,0.583-1.301,1.3-1.301s1.3,0.583,1.3,1.301v8.538h0.117V8.168
		c0-0.717,0.583-1.3,1.299-1.3c0.717,0,1.3,0.583,1.3,1.3v4.365c0,0.094-0.009,0.183-0.028,0.272
		C16.389,16.24,13.441,18.963,9.951,18.963z M3.835,12.275c0.025,3.351,2.759,6.069,6.115,6.069c3.169,0,5.845-2.473,6.094-5.629
		c0.015-0.087,0.021-0.133,0.021-0.183V8.168c0-0.375-0.306-0.68-0.681-0.68c-0.375,0-0.68,0.305-0.68,0.68v3.512h-1.356V2.522
		c0-0.375-0.306-0.681-0.681-0.681c-0.375,0-0.681,0.305-0.681,0.681l0.001,9.336c0,1.124-0.913,2.038-2.037,2.038
		c-0.608,0-1.18-0.274-1.564-0.734C8.049,13.395,7.65,13.52,7.233,13.52c-0.845,0-1.598-0.537-1.897-1.302
		C4.866,12.426,4.316,12.445,3.835,12.275z M9.951,13.159c-0.717,0-1.301-0.583-1.301-1.3V7.43c0-0.717,0.584-1.3,1.301-1.3
		c0.717,0,1.3,0.583,1.3,1.3v4.429C11.25,12.576,10.667,13.159,9.951,13.159z M9.951,6.75c-0.375,0-0.681,0.305-0.681,0.68v4.429
		c0,0.375,0.306,0.681,0.681,0.681c0.375,0,0.68-0.306,0.68-0.681V7.43C10.631,7.055,10.326,6.75,9.951,6.75z M7.233,12.783
		c-0.717,0-1.301-0.583-1.301-1.3V7.566c0-0.717,0.583-1.3,1.301-1.3c0.717,0,1.3,0.583,1.3,1.3v3.917
		C8.534,12.2,7.95,12.783,7.233,12.783z M7.233,6.886c-0.375,0-0.681,0.305-0.681,0.68v3.917c0,0.375,0.305,0.681,0.681,0.681
		c0.375,0,0.68-0.306,0.68-0.681V7.566C7.913,7.191,7.608,6.886,7.233,6.886z M4.516,11.654c-0.717,0-1.301-0.583-1.301-1.301v-2.84
		c0-0.717,0.583-1.301,1.301-1.301c0.717,0,1.3,0.583,1.3,1.301l-0.001,2.849C5.809,11.076,5.226,11.654,4.516,11.654z M4.516,6.833
		c-0.375,0-0.681,0.305-0.681,0.681v2.84c0,0.375,0.305,0.681,0.681,0.681c0.371,0,0.676-0.303,0.679-0.675V7.566
		C5.196,7.138,4.891,6.833,4.516,6.833z"/>
</g>
</svg>
